<svg xmlns="http://www.w3.org/2000/svg" width="512" height="512" fill="none" viewBox="0 0 512 512"><path fill="#646464" d="m78 213.957 157.969-76.956s54.009-20.252 97.209 0c0 0 46.581 20.932 70.884 81.013 0 0-51.983 31.05-57.38 32.401 0 0-43.205 23.851-81.008-27.005l37.803-21.597s10.799-3.328-6.752-11.119c0 0-22.953-6.884-47.256 5.712l-75.606 35.107S133.359 250.415 78 213.957M433.757 298.045l-157.964 76.956s-54.009 20.247-97.213 0c0 0-46.577-20.927-70.885-81.008 0 0 51.983-31.06 57.385-32.406 0 0 43.205-23.851 81.008 27.01l-37.803 21.592s-10.804 3.333 6.752 11.11c0 0 22.953 6.893 47.256-5.713l75.606-35.102s40.504-18.897 95.858 17.561"/></svg>